/* XPM */
static char * menu_status_bar_xpm[] = {
"16 16 112 2",
"  	c None",
". 	c #2F376D",
"+ 	c #0B4A9F",
"@ 	c #06449A",
"# 	c #05449A",
"$ 	c #1C529F",
"% 	c #B3ACBD",
"& 	c #B3ADBD",
"* 	c #A9A7BB",
"= 	c #A2A2B9",
"- 	c #B4ADBD",
"; 	c #ACA8BB",
"> 	c #283773",
", 	c #8FC0EE",
"' 	c #FCFDFE",
") 	c #FFFFFF",
"! 	c #0267CC",
"~ 	c #A6CAED",
"{ 	c #0065CC",
"] 	c #94BFE9",
"^ 	c #005CC9",
"/ 	c #74ACE3",
"( 	c #2E3870",
"_ 	c #004FAF",
": 	c #0045A7",
"< 	c #0E55AC",
"[ 	c #D5CCD4",
"} 	c #D9D2D8",
"| 	c #D4CDD5",
"1 	c #CAC7D3",
"2 	c #C2C2D1",
"3 	c #D6CED5",
"4 	c #CCC8D3",
"5 	c #8683A0",
"6 	c #DBD0D5",
"7 	c #DCD1D5",
"8 	c #D2CED8",
"9 	c #404070",
"0 	c #0C6DCE",
"a 	c #0167CC",
"b 	c #78B2EA",
"c 	c #4A4876",
"d 	c #C9C9C6",
"e 	c #A9A6BB",
"f 	c #9BC3EB",
"g 	c #97C0EA",
"h 	c #8EBBE8",
"i 	c #464675",
"j 	c #CACAC5",
"k 	c #A0A1FF",
"l 	c #B4AFFD",
"m 	c #A4A3BA",
"n 	c #E8F1FA",
"o 	c #E7F0FA",
"p 	c #E4EFF9",
"q 	c #9797FF",
"r 	c #F8F6FE",
"s 	c #BCBDF6",
"t 	c #B3ADBE",
"u 	c #1F7AD4",
"v 	c #1674D2",
"w 	c #85BBEE",
"x 	c #4A4976",
"y 	c #9393FA",
"z 	c #EEEEFE",
"A 	c #E4E5FB",
"B 	c #595983",
"C 	c #88839E",
"D 	c #343467",
"E 	c #9099EC",
"F 	c #EDEDFE",
"G 	c #F0F0FF",
"H 	c #D3D7F7",
"I 	c #8693D7",
"J 	c #9E9EB6",
"K 	c #FEFBFA",
"L 	c #F6F6F9",
"M 	c #454575",
"N 	c #8F8FE6",
"O 	c #E6E6FE",
"P 	c #E8E8FE",
"Q 	c #E8E8FF",
"R 	c #DEDEFC",
"S 	c #7E8BCF",
"T 	c #AFAABC",
"U 	c #428ED9",
"V 	c #3B89D7",
"W 	c #2C80D4",
"X 	c #CACAC6",
"Y 	c #8C8ADC",
"Z 	c #E6E6FF",
"` 	c #D0D0F3",
" .	c #B4B8E7",
"..	c #677EC6",
"+.	c #3183D5",
"@.	c #93C3EF",
"#.	c #494876",
"$.	c #CBCBC6",
"%.	c #9190D8",
"&.	c #A6A6D9",
"*.	c #C7C8F3",
"=.	c #9899D0",
"-.	c #454574",
";.	c #9290D1",
">.	c #BCBDED",
",.	c #C1C1F1",
"'.	c #989AD1",
").	c #55557B",
"!.	c #656584",
"~.	c #646484",
"{.	c #6C6C8A",
"].	c #C5C5C3",
"                                ",
". + @ @ # $ % & & * = - % % ;   ",
"> , ' ' ) ! ~ { { ] ) ^ ! ! /   ",
"( _ : : : < [ } | 1 2 3 | | 4   ",
"  5 6 7 7 6 8 9                 ",
"  % 0 ! ! a b c d               ",
"  e f g h ) ) i j k l           ",
"  m n o p ) ) i j q r s         ",
"  t u v v v w x j y z A         ",
"  B C C C C 5 D j E F G H I     ",
"  J K K K L ) M j N O P Q R S   ",
"  T U V W ) ) i X Y Z `  ...    ",
"  T U V V +.@.#.$.%.&.  *.=.    ",
"  J K K K K ) -.$.;.    >.,.'.  ",
"  ).!.!.!.!.~.{.].        '.    ",
"                                "};
