/* XPM */
static char * additional_xpm[] = {
"16 16 104 2",
"  	c None",
". 	c #6AB5ED",
"+ 	c #567FA3",
"@ 	c #9DD1F8",
"# 	c #94C8ED",
"$ 	c #9CCEF2",
"% 	c #9DCFF2",
"& 	c #91C5EC",
"* 	c #96C8ED",
"= 	c #479EDF",
"- 	c #14D1CE",
"; 	c #776F6A",
"> 	c #C9D5E5",
", 	c #4B6E9C",
"' 	c #50729E",
") 	c #436797",
"! 	c #FFFEFD",
"~ 	c #FFFFFF",
"{ 	c #53A5E1",
"] 	c #9DD2F9",
"^ 	c #6E6560",
"/ 	c #9ACEF5",
"( 	c #696964",
"_ 	c #C2C3CC",
": 	c #73736F",
"< 	c #727370",
"[ 	c #6B6D74",
"} 	c #CCCC19",
"| 	c #717373",
"1 	c #D6E0ED",
"2 	c #5274A1",
"3 	c #587AA4",
"4 	c #4C709E",
"5 	c #F5F7F9",
"6 	c #6A6A65",
"7 	c #6F7070",
"8 	c #70726E",
"9 	c #DAD3DA",
"0 	c #54A5E2",
"a 	c #7A7B78",
"b 	c #7D7E7B",
"c 	c #817B7F",
"d 	c #27BD26",
"e 	c #787D77",
"f 	c #E4EBF4",
"g 	c #5F7FA8",
"h 	c #6685AC",
"i 	c #6983A9",
"j 	c #4297D8",
"k 	c #71726F",
"l 	c #FEFEFE",
"m 	c #797E77",
"n 	c #F8F9F8",
"o 	c #FBFCFD",
"p 	c #53A4E1",
"q 	c #6C6E6A",
"r 	c #ECE7EC",
"s 	c #D0D1D0",
"t 	c #898A87",
"u 	c #8E898D",
"v 	c #2EB52D",
"w 	c #868A84",
"x 	c #E7EDF5",
"y 	c #6F8CB1",
"z 	c #7691B4",
"A 	c #7991B1",
"B 	c #4499D9",
"C 	c #F3F4F3",
"D 	c #FAFAFA",
"E 	c #717F6F",
"F 	c #F1F1F0",
"G 	c #FCFDFE",
"H 	c #F1F4F7",
"I 	c #F2F4F8",
"J 	c #FEFAF9",
"K 	c #52A4E0",
"L 	c #99CDF4",
"M 	c #868681",
"N 	c #E2E3E2",
"O 	c #E4E4E6",
"P 	c #7D7E53",
"Q 	c #E1E1E1",
"R 	c #F5F7FA",
"S 	c #E0E8F2",
"T 	c #D9E1EA",
"U 	c #D9E0EA",
"V 	c #D6DEE9",
"W 	c #FCFDFD",
"X 	c #96C8EC",
"Y 	c #AFAAA4",
"Z 	c #B3AEAE",
"` 	c #AFAA35",
" .	c #B5B0AB",
"..	c #F2F2F6",
"+.	c #A0AFC6",
"@.	c #A4B3C9",
"#.	c #9DADC5",
"$.	c #FFFFFD",
"%.	c #54A5E1",
"&.	c #55A7E3",
"*.	c #56A8E4",
"=.	c #4294D2",
"-.	c #55A6E2",
";.	c #409BDE",
"                                ",
"  . + @ # $ $ $ % & & & & & * = ",
"  + - ; > , ' ' ) ! ~ ~ ~ ~ ~ { ",
"  ] ^ ~ ~ ~ ~ ~ ~ ~ ~ ~ ~ ~ ~ { ",
"  / ( ~ ~ _ ~ ~ ~ ~ ~ ~ ~ ~ ~ { ",
"  / : < [ } | 1 2 3 3 4 5 ~ ~ { ",
"  / 6 ~ ~ 7 ~ ~ ~ ~ ~ ~ ~ ~ ~ { ",
"  / 6 ~ ~ 8 ~ ~ 9 ~ ~ ~ ~ ~ ~ 0 ",
"  / 6 ~ ~ a b c d e f g h h i j ",
"  / 6 ~ ~ k l ~ m n l o o o ~ p ",
"  / 6 ~ ~ q ~ ~ r ~ ~ ~ ~ ~ ~ 0 ",
"  / 6 ~ ~ s t u v w x y z z A B ",
"  / 6 ~ l ~ C D E F G H I I J K ",
"  L M N O P Q R S T U V W ~ ~ { ",
"  X ~ Y Z `  ...+.@.@.#.$.~ ~ %.",
"  = { &.*.=.&.{ -.-.-.-.{ { %.;."};
