/* XPM */
static char * container_xpm[] = {
"16 16 95 2",
"  	c None",
". 	c #F5F6F8",
"+ 	c #EDEFF4",
"@ 	c #EEF0F4",
"# 	c #BAC6DD",
"$ 	c #B8C4DC",
"% 	c #B9C5DC",
"& 	c #BAC5DC",
"* 	c #BECADF",
"= 	c #DBE1EB",
"- 	c #DCE1EB",
"; 	c #DEE2EC",
"> 	c #7B9AC5",
", 	c #C7EAF3",
"' 	c #C4EAF8",
") 	c #BAE2F5",
"! 	c #ACD7EE",
"~ 	c #7391C0",
"{ 	c #DDE2EC",
"] 	c #DEE3EC",
"^ 	c #81A0C9",
"/ 	c #DCFFFF",
"( 	c #818181",
"_ 	c #868B8E",
": 	c #B3E6FB",
"< 	c #7694C3",
"[ 	c #80A1CA",
"} 	c #B0C6C9",
"| 	c #96A6AC",
"1 	c #90A1A9",
"2 	c #97BDCF",
"3 	c #7594C3",
"4 	c #7E9FC8",
"5 	c #CEFAFF",
"6 	c #BCECFD",
"7 	c #A9DFF8",
"8 	c #99D6F6",
"9 	c #7393C2",
"0 	c #6885B9",
"a 	c #708BBC",
"b 	c #708CBC",
"c 	c #718CBC",
"d 	c #718CBD",
"e 	c #708CBD",
"f 	c #7F95BD",
"g 	c #D9D5CF",
"h 	c #DDDBD7",
"i 	c #E5E3E0",
"j 	c #F9F5EE",
"k 	c #7E97C2",
"l 	c #7D94BC",
"m 	c #D2D0CE",
"n 	c #D6D6D5",
"o 	c #DDDDDE",
"p 	c #EFEDEA",
"q 	c #7D96C2",
"r 	c #7D94BD",
"s 	c #7790BB",
"t 	c #B8BDC8",
"u 	c #BBC2CD",
"v 	c #C1C7D4",
"w 	c #CFD4DE",
"x 	c #7A93C0",
"y 	c #7594C2",
"z 	c #A9CCE5",
"A 	c #9FC4E1",
"B 	c #96BEDE",
"C 	c #8EBADD",
"D 	c #7290C0",
"E 	c #7E9EC8",
"F 	c #CEF7FF",
"G 	c #BEEBFC",
"H 	c #AFE1F9",
"I 	c #A1D9F5",
"J 	c #7493C2",
"K 	c #7E9FCA",
"L 	c #A2B6BA",
"M 	c #7B7876",
"N 	c #7D7977",
"O 	c #89AEC4",
"P 	c #7393C3",
"Q 	c #F6F6F8",
"R 	c #E3E7EE",
"S 	c #E4E7EF",
"T 	c #E5E9EF",
"U 	c #799BC7",
"V 	c #BEF2FF",
"W 	c #96B4C3",
"X 	c #8CB2C8",
"Y 	c #87CCF7",
"Z 	c #7191C2",
"` 	c #7D97C3",
" .	c #7C95C2",
"..	c #708DBE",
"+.	c #7795C3",
"                                ",
"  . + @ @ @ @ @ @ @ # $ % & & * ",
"  + = - - - - - - ; > , ' ) ! ~ ",
"  @ - { { { { { { ] ^ / ( _ : < ",
"  @ - { { { { { { ] [ } | 1 2 3 ",
"  @ - { { { { { { ] 4 5 6 7 8 9 ",
"  @ - { { { { { { ] 0 a b c d e ",
"  @ - { { { { { { ] f g h i j k ",
"  @ - { { { { { { ] l m n o p q ",
"  @ - { { { { { { ] r m n o p q ",
"  @ - { { { { { { ] s t u v w x ",
"  @ - { { { { { { ] y z A B C D ",
"  @ - { { { { { { ] E F G H I J ",
"  @ - { { { { { { ] K L M N O P ",
"  Q R S S S S S S T U V W X Y Z ",
"  `  . . . . . . . ...+.3 P Z e "};
