/* XPM */
static char * forms_xpm[] = {
"16 16 109 2",
"  	c None",
". 	c #A3C0E5",
"+ 	c #4E73AD",
"@ 	c #5076B0",
"# 	c #5679B1",
"$ 	c #577AB1",
"% 	c #5479B2",
"& 	c #5178B4",
"* 	c #5579B2",
"= 	c #497BBA",
"- 	c #A1BEE4",
"; 	c #668ABF",
"> 	c #B3CDED",
", 	c #CAD9EE",
"' 	c #96BAE7",
") 	c #8FB6E6",
"! 	c #ACBFD7",
"~ 	c #C2C5CB",
"{ 	c #9BBAE0",
"] 	c #9EBBDE",
"^ 	c #94B3E0",
"/ 	c #DF8982",
"( 	c #769AC8",
"_ 	c #6387BD",
": 	c #A4C4EB",
"< 	c #B5CBEB",
"[ 	c #84AEE3",
"} 	c #88B1E3",
"| 	c #87B0E3",
"1 	c #86AFE2",
"2 	c #85AEE1",
"3 	c #9BB4D5",
"4 	c #ABB8CC",
"5 	c #8DAFDB",
"6 	c #8FAFD8",
"7 	c #86A9D9",
"8 	c #B78491",
"9 	c #688FC5",
"0 	c #6A8ABA",
"a 	c #BBC6D3",
"b 	c #B5C1D2",
"c 	c #B7C2D1",
"d 	c #B6C2D1",
"e 	c #B5C1D0",
"f 	c #B5C1CF",
"g 	c #B5C0CF",
"h 	c #B3BFCE",
"i 	c #B2BECE",
"j 	c #B3BECD",
"k 	c #B1BCCC",
"l 	c #B1BCCB",
"m 	c #B2C0CE",
"n 	c #6E8FBF",
"o 	c #7492C1",
"p 	c #FFFFFF",
"q 	c #7696C3",
"r 	c #FCFCFC",
"s 	c #FBFBFB",
"t 	c #FAFAFA",
"u 	c #F9F9F9",
"v 	c #F6F6F6",
"w 	c #FFFFFC",
"x 	c #FDFDFD",
"y 	c #F8F8F8",
"z 	c #F7F7F7",
"A 	c #F4F4F4",
"B 	c #7390BF",
"C 	c #F5F5F5",
"D 	c #F3F3F3",
"E 	c #F2F2F2",
"F 	c #F1F1F1",
"G 	c #FFFEFB",
"H 	c #708EBC",
"I 	c #6F8CBB",
"J 	c #6D8BB8",
"K 	c #FFFFFE",
"L 	c #6B87B7",
"M 	c #7593C1",
"N 	c #6C87B6",
"O 	c #6A88B6",
"P 	c #BFBEBE",
"Q 	c #C8C9CB",
"R 	c #D0D1D3",
"S 	c #CECFD1",
"T 	c #CCCDCF",
"U 	c #C8CACC",
"V 	c #C7C8CA",
"W 	c #C5C6C8",
"X 	c #C2C4C6",
"Y 	c #C2C3C5",
"Z 	c #BFC1C3",
"` 	c #BDBEC0",
" .	c #B8B8B7",
"..	c #5F7CAB",
"+.	c #A3C0E6",
"@.	c #4D75B2",
"#.	c #5077B4",
"$.	c #4F76B3",
"%.	c #4F77B3",
"&.	c #5077B3",
"*.	c #5078B4",
"=.	c #4E74B0",
"-.	c #4B72AE",
";.	c #4A71AE",
">.	c #496EAA",
",.	c #476BA8",
"'.	c #466BA8",
").	c #3F64A2",
"!.	c #A2BFE5",
"                                ",
". + @ # $ $ $ $ $ % & # * $ = - ",
"; > , ' ) ) ) ) ) ! ~ { ] ^ / ( ",
"_ : < [ } | 1 1 2 3 4 5 6 7 8 9 ",
"0 a b c c d e f g h i j k l m n ",
"o p p p p p p p p p p p p p p q ",
"o p r r r r r r r s t u v v w o ",
"o p r x r x r r s u y z A A w B ",
"o p r r r s u u z C A D E F G H ",
"o p r s s u z z A D E F F F G I ",
"o p t u y z A A E F E F E F G J ",
"o p y y z v C C C C C C C C K L ",
"M p p p p p p p p p p p p p p N ",
"O P Q R S T U V W X Y Z ` `  ...",
"+.@.#.$.%.&.#.*.=.-.;.>.,.'.).!.",
"                                "};
